<svg xmlns="http://www.w3.org/2000/svg" xmlns:xlink="http://www.w3.org/1999/xlink" viewBox="0 0 128 128"><path fill="#F0D6BF" d="M76,88.2l0,16.9c0,1.7-0.9,3.4-2.4,4.3c-5.9,3.5-13.2,3.5-19.1,0c-1.5-0.9-2.4-2.5-2.4-4.3c0-5.3,0-16.9,0-16.9"/><path fill="#454B54" d="M99.3,113.9l-22.2-9c-0.4-0.2-0.8-0.2-1.2-0.2l0,0.4c0,1.7-0.9,3.4-2.4,4.3c-5.9,3.5-13.2,3.5-19.1,0c-1.5-0.9-2.4-2.5-2.4-4.3c0-0.1,0-0.3,0-0.4c-0.4,0-0.8,0-1.2,0.2l-22.2,9c-1.2,0.5-1.9,1.6-1.9,2.9c0,1.3,0.9,2.4,2.1,2.7c11.4,3.7,23.2,5.5,35.1,5.5s23.7-1.9,35.1-5.5c1.2-0.4,2-1.5,2.1-2.7C101.2,115.5,100.5,114.4,99.3,113.9z"/><path fill="#F7ECE4" d="M31.7,56l1,6.2c1.2,7.2,3.5,14.2,7,20.6c0.3,0.5,0.5,0.9,0.8,1.3c7.9,13.5,16.9,17.5,23.5,17.5c6.6,0,15.6-4,23.5-17.5c4-6.8,6.5-14.3,7.8-22l1-6.1"/><path fill="#F0D6BF" d="M96.3,56l-63.4,7.3c0,0,16.1,12.9,31.1,18.1v20.2c6.6,0,15.6-4,23.5-17.5c3.7-6.3,6.1-13.2,7.5-20.4c0.1-0.5,0.2-1.1,0.3-1.6L96.3,56z"/><path fill="#454B54" d="M64,104.6c-5.6,0-16.4-2.5-26.1-18.9c-0.3-0.5-0.5-0.9-0.8-1.4c-3.6-6.5-6.1-13.8-7.4-21.6l-1-6.2c-0.3-1.6,0.8-3.2,2.5-3.4c1.6-0.3,3.2,0.8,3.4,2.5l1,6.2c1.2,7.1,3.4,13.7,6.7,19.6c0.2,0.4,0.5,0.9,0.7,1.3c8.1,13.9,16.6,16,20.9,16c10.4,0,18.1-11.2,20.9-16c3.7-6.3,6.2-13.3,7.4-21l1-6.1c0.3-1.6,1.8-2.7,3.4-2.5c1.6,0.3,2.7,1.8,2.5,3.4l-1,6.1c-1.4,8.4-4.1,16.1-8.1,23C80.4,102.1,69.6,104.6,64,104.6z"/><path fill="#454B54" d="M109.3,55.7c-0.1-1.1-0.9-2.1-1.9-2.5l-20.7-7.6c-8.2-3-16.8-4.5-25.5-4.5c-14.7,0-28.9,4.3-41.1,12.4c-0.9,0.6-1.4,1.7-1.3,2.9c0.1,1.1,0.9,2.1,1.9,2.5l35.5,13c4.8,1.7,9.7,2.6,14.8,2.6c8.5,0,16.8-2.5,23.9-7.2l13.1-8.7C108.9,57.9,109.4,56.8,109.3,55.7z"/><path fill="#5F6770" d="M96.3,56L96.3,56c-21,6.5-43.5,6.5-64.6,0l0,0L36,30.3c0.4-8,7-14.3,15-14.3l13,3l13-3c8,0,14.6,6.3,15,14.3L96.3,56z"/><path fill="#82909B" d="M59.3,18.9L64,19l-13-3c-8,0-14.6,6.3-15,14.3L31.7,56c0.1,0,0.2,0.1,0.3,0.1c13.6,4.2,27.3-6,27.3-20.2V18.9z"/><path fill="#454B54" d="M64,63.9c-9.7,0-19.3-1.3-28.7-3.7c-4-1.1-6.5-5-5.8-9.1L33,29.9C33.6,20.4,41.4,13,51,13c0.8,0,1.6,0.3,2.1,0.9c2.9,2.9,6.8,4.5,10.9,4.5s8-1.6,10.9-4.5c0.6-0.6,1.3-0.9,2.1-0.9c9.5,0,17.4,7.4,18,16.9l4.3,25.6c0.2,1.5-0.6,2.9-2.1,3.4C86.4,62.2,75.3,63.9,64,63.9z M49.9,19.1C44,19.6,39.3,24.4,39,30.4c0,0.1,0,0.2,0,0.3l-3.6,21.3c-0.2,1,0.5,2,1.4,2.3c18.3,4.8,37.8,4.7,56-0.5L89,30.8c0-0.1,0-0.2,0-0.3c-0.3-6-5-10.8-10.9-11.3c-3.9,3.5-8.9,5.3-14.1,5.3S53.8,22.5,49.9,19.1z"/><path fill="#454B54" d="M77,19H51c-1.7,0-3-1.3-3-3s1.3-3,3-3h26c1.7,0,3,1.3,3,3S78.7,19,77,19z"/><path fill="#454B54" d="M92,30.3c-0.4-8-7-14.3-15-14.3l-4.9,0.9c5.5,2,9.6,7.1,9.9,13.3l3.6,21.3c0.4,2.5-1.1,5-3.6,5.7c-7.5,2-15.2,3.2-22.9,3.5c12.5,0.6,25.2-1,37.3-4.8h0L92,30.3z"/></svg>